<?xml version="1.0" encoding="UTF-8" standalone="no"?>
<!-- Created with Inkscape (http://www.inkscape.org/) -->

<svg
   xmlns:dc="http://purl.org/dc/elements/1.1/"
   xmlns:cc="http://creativecommons.org/ns#"
   xmlns:rdf="http://www.w3.org/1999/02/22-rdf-syntax-ns#"
   xmlns:svg="http://www.w3.org/2000/svg"
   xmlns="http://www.w3.org/2000/svg"
   xmlns:sodipodi="http://sodipodi.sourceforge.net/DTD/sodipodi-0.dtd"
   xmlns:inkscape="http://www.inkscape.org/namespaces/inkscape"
   width="16"
   height="16"
   id="svg2"
   version="1.1"
   inkscape:version="0.92.3 (2405546, 2018-03-11)"
   sodipodi:docname="checkbox-checked.svg"
   inkscape:export-filename="/home/steffen/.local/share/themes/neu2/gtk-3.0/assets/dark/checkbox-unchecked.png"
   inkscape:export-xdpi="90"
   inkscape:export-ydpi="90">
  <defs
     id="defs4">
    <linearGradient
       id="linearGradient3768-6">
      <stop
         style="stop-color:#0f0f0f;stop-opacity:1;"
         offset="0"
         id="stop3770-6" />
      <stop
         id="stop3778-2"
         offset="0.078125"
         style="stop-color:#171717;stop-opacity:1;" />
      <stop
         style="stop-color:#171717;stop-opacity:1;"
         offset="0.97355771"
         id="stop3774-0" />
      <stop
         style="stop-color:#1b1b1b;stop-opacity:1;"
         offset="1"
         id="stop3776-1" />
    </linearGradient>
  </defs>
  <sodipodi:namedview
     id="base"
     pagecolor="#ffffff"
     bordercolor="#666666"
     borderopacity="1.0"
     inkscape:pageopacity="0.0"
     inkscape:pageshadow="2"
     inkscape:zoom="22.627417"
     inkscape:cx="18.143452"
     inkscape:cy="7.6159144"
     inkscape:document-units="px"
     inkscape:current-layer="layer1"
     showgrid="true"
     inkscape:snap-bbox="true"
     showguides="true"
     inkscape:guide-bbox="true"
     inkscape:showpageshadow="false"
     showborder="true"
     inkscape:window-width="1920"
     inkscape:window-height="1013"
     inkscape:window-x="0"
     inkscape:window-y="0"
     inkscape:window-maximized="1"
     inkscape:bbox-paths="true"
     inkscape:bbox-nodes="true"
     inkscape:snap-bbox-edge-midpoints="true">
    <inkscape:grid
       type="xygrid"
       id="grid2985"
       empspacing="5"
       visible="true"
       enabled="true"
       snapvisiblegridlinesonly="true" />
  </sodipodi:namedview>
  <metadata
     id="metadata7">
    <rdf:RDF>
      <cc:Work
         rdf:about="">
        <dc:format>image/svg+xml</dc:format>
        <dc:type
           rdf:resource="http://purl.org/dc/dcmitype/StillImage" />
        <dc:title />
      </cc:Work>
    </rdf:RDF>
  </metadata>
  <g
     inkscape:label="Ebene 1"
     inkscape:groupmode="layer"
     id="layer1"
     transform="translate(0,-1036.3622)">
    <g
       transform="translate(-36,1036)"
       style="display:inline;opacity:1"
       id="checkbox-checked-dark"
       inkscape:label="#g10758">
      <g
         inkscape:label="#g22047"
         id="checkbox-unchecked-5-59"
         style="display:inline"
         transform="translate(19,0)">
        <g
           id="sdsd-7-54"
           inkscape:label="#g21853">
          <g
             transform="translate(0,-30)"
             inkscape:label="#g14325"
             id="scdsdcd-5-8">
            <g
               transform="matrix(0.92951982,0,0,0.92914368,-156.75069,-212.9618)"
               id="g15812-6-6-1-5-4"
               style="display:inline">
              <g
                 style="display:inline"
                 id="g5489-2-9-6-8-8-53-5"
                 transform="matrix(0.5089163,0,0,0.51739823,161.7932,197.56426)">
                <g
                   id="g5428-8-1-4-0-0-4-2" />
              </g>
            </g>
            <rect
               style="color:#000000;display:inline;overflow:visible;visibility:visible;fill:none;stroke:none;stroke-width:2;marker:none;enable-background:accumulate"
               id="rect13523-7-11"
               width="16"
               height="16"
               x="17"
               y="30.362183" />
            <g
               id="g5400-6-68">
              <rect
                 rx="1.9999943"
                 y="31.362196"
                 x="18.000006"
                 height="13.99999"
                 width="13.999989"
                 id="rect5147-9-1-5-7-6-7-4"
                 style="color:#000000;display:inline;overflow:visible;visibility:visible;fill:#8f8f8f;fill-opacity:1;stroke:#000000;stroke-width:0;stroke-linecap:butt;stroke-linejoin:round;stroke-miterlimit:4;stroke-dasharray:none;stroke-dashoffset:0;stroke-opacity:1;marker:none;enable-background:accumulate"
                 ry="1.9999917" />
            </g>
          </g>
        </g>
      </g>
      <g
         inkscape:label="Ebene 1"
         id="checkbox-checked-dark-7-37"
         transform="translate(36,-1036)"
         style="display:inline">
        <g
           id="g3981-6-4-97"
           transform="matrix(0.70710678,0.70710678,-0.70710678,0.70710678,729.95475,305.0582)"
           style="opacity:0.85;fill:#1a1a1a;fill-opacity:1" />
        <g
           id="g4049-2-5"
           transform="matrix(0.70710678,0.70710678,-0.70710678,0.70710678,727.94436,295.31123)">
          <g
             id="g4056-7-6"
             transform="translate(12.374375,11.531233)">
            <g
               id="g3981-0-8"
               transform="translate(-3,-4.9999826)"
               style="fill:#3b3c3e;fill-opacity:1">
              <rect
                 ry="0.66666085"
                 rx="0.66666085"
                 y="1033.3622"
                 x="8"
                 height="1.9999826"
                 width="5"
                 id="rect3977-39-90"
                 style="fill:#2f2f2f;fill-opacity:1;stroke:none" />
              <rect
                 ry="0"
                 y="1027.3622"
                 x="11"
                 height="7.9999828"
                 width="2"
                 id="rect3979-7-60"
                 style="fill:#2f2f2f;fill-opacity:1;stroke:none" />
            </g>
            <rect
               style="fill:#eeeeee;fill-opacity:0;stroke:none"
               id="rect4047-81-5"
               width="3"
               height="1"
               x="5"
               y="-8"
               transform="translate(0,1036.3622)" />
          </g>
        </g>
      </g>
    </g>
    <path
       style="fill:#008000;fill-opacity:1;stroke-width:0.04419417"
       d="M 5.4605327,9.9019566 C 4.6063954,9.0451421 3.8855831,8.3006729 3.8587274,8.2475806 3.7957554,8.1230879 3.7959383,7.8132886 3.859057,7.6893427 3.9300496,7.5499349 4.4737453,7.0008214 4.6142479,6.9266265 4.7564298,6.8515449 5.0589723,6.8441728 5.1938722,6.9125028 5.2469645,6.9393953 5.6832338,7.3519263 6.1633596,7.8292383 L 7.0363154,8.6970783 9.1575135,6.5762257 11.278711,4.455373 11.974618,5.1512796 12.670525,5.8471862 9.864478,8.6534937 C 8.3211525,10.196963 7.0483241,11.459801 7.0359706,11.459801 c -0.012354,0 -0.7213006,-0.70103 -1.5754379,-1.5578444 z"
       id="path31"
       inkscape:connector-curvature="0"
       transform="translate(0,1036.3622)" />
    <path
       style="fill:#008000;fill-opacity:1;stroke-width:0.0078125"
       d="M 5.4774218,9.938821 C 4.439919,8.9004192 3.9129769,8.3676901 3.8934086,8.3374119 3.8104597,8.2090646 3.7751449,8.0806384 3.782358,7.9335648 3.7847815,7.8841507 3.7923977,7.8226273 3.799283,7.796846 3.8187185,7.7240713 3.8761209,7.612731 3.9267768,7.5495536 3.9520876,7.5179863 4.0936783,7.3726273 4.2414228,7.2265335 4.5393101,6.9319745 4.5673907,6.9101166 4.7092679,6.8623639 c 0.065025,-0.021886 0.087283,-0.025419 0.1796875,-0.028521 0.088601,-0.00297 0.1164653,-9.144e-4 0.1742292,0.012883 0.075149,0.01795 0.1627798,0.055465 0.2216664,0.094897 0.020734,0.013884 0.422671,0.409733 0.8931936,0.8796651 l 0.8554955,0.8544221 2.1210561,-2.1210669 2.1210558,-2.121067 0.704634,0.7046017 c 0.387549,0.3875309 0.703273,0.7068044 0.701609,0.7094967 -0.0017,0.00269 -0.317856,-0.3099863 -0.702649,-0.6948414 L 11.279623,4.4530962 9.1585202,6.5741722 7.0374173,8.6952482 6.6565457,8.316065 C 5.6445982,7.3086035 5.2559923,6.9377297 5.1745715,6.9017134 5.1566475,6.8937847 5.110958,6.8818875 5.0730392,6.875275 4.9053178,6.8460268 4.6934668,6.8738615 4.5902606,6.9387065 4.4568557,7.0225252 3.9770874,7.5053924 3.8787145,7.6548484 c -0.053225,0.080863 -0.071727,0.1803325 -0.06565,0.3529351 0.00404,0.1147825 0.015544,0.1803565 0.040991,0.2336704 0.02431,0.050932 0.411117,0.4539699 1.3005252,1.3550947 0.6848556,0.6938774 1.8635271,1.8604534 1.8797433,1.8604534 0.012041,0 0.5883062,-0.563998 1.0889675,-1.065786 0.1611114,-0.161474 0.2958737,-0.293589 0.2994718,-0.293589 0.010433,0 -0.6422273,0.660281 -1.0330909,1.045153 l -0.35756,0.352079 z"
       id="path33"
       inkscape:connector-curvature="0"
       transform="translate(0,1036.3622)" />
    <path
       style="fill:#008000;fill-opacity:1;stroke-width:0.0078125"
       d="m 6.6838439,11.146422 c -0.18797,-0.188006 -0.3417636,-0.345257 -0.3417636,-0.349446 0,-0.0042 0.03252,0.02392 0.072266,0.06246 C 6.454092,10.897977 6.169978,10.61138 5.7829813,10.222554 5.0040861,9.4399751 4.6178657,9.0484046 4.3186429,8.7379306 4.2090726,8.6242403 4.1159085,8.5297947 4.1116116,8.5280514 c -0.01072,-0.00435 0.301867,0.3185671 0.6386719,0.6597767 0.1536133,0.1556222 0.2792968,0.285984 0.2792968,0.2896929 0,0.00859 -0.4783628,-0.4685773 -0.8471415,-0.8450283 C 3.9928387,8.438948 3.8908799,8.3290083 3.8745112,8.3004615 3.8484983,8.2550958 3.8442918,8.2416809 3.8589125,8.250717 c 0.00598,0.0037 0.00688,0.00211 0.00268,-0.00469 C 3.8581025,8.240377 3.8486775,8.216107 3.8406465,8.192086 3.8272925,8.152142 3.8263735,8.15108 3.8298905,8.179659 l 0.00385,0.03125 -0.012265,-0.02733 C 3.8000476,8.1358477 3.7876666,8.0573317 3.7875876,7.968721 3.7874874,7.8563741 3.7980868,7.7949506 3.8304685,7.7202274 3.8825098,7.600138 3.9255067,7.548217 4.195067,7.279955 4.4673821,7.0089516 4.5220142,6.958734 4.5880961,6.9186842 4.7304659,6.832399 4.9530591,6.8110633 5.1213842,6.8675681 5.2604651,6.9142559 5.2549458,6.909668 5.6836405,7.3349377 5.8998591,7.5494288 6.0749231,7.7267636 6.0726718,7.729015 6.0704204,7.7312663 5.9798233,7.6454563 5.8713449,7.5383261 5.5806089,7.251203 5.2981472,6.9859964 5.2363918,6.9421611 c -0.00847,-0.00601 0.00569,0.00804 0.03147,0.031222 0.2322001,0.2088278 0.5606614,0.5265507 1.218295,1.178465 C 6.7914852,8.454521 6.9059648,8.5661421 6.740556,8.3998949 6.5751471,8.2336476 6.443329,8.0976273 6.4476267,8.0976273 c 0.0043,0 0.1378642,0.1300858 0.2968144,0.2890796 L 7.0334415,8.6757865 9.1506568,6.5585819 C 10.315125,5.3941195 11.271398,4.4413774 11.275707,4.4413774 c 0.0043,0 0.19238,0.1845703 0.417936,0.4101563 0.225555,0.2255859 0.40661,0.4101562 0.402343,0.4101562 -0.0043,0 -0.189708,-0.1819267 -0.412094,-0.4042816 L 11.279554,4.4531268 9.7229266,6.0117027 8.166299,7.5702786 9.7229405,6.0156001 11.279582,4.4609215 11.97294,5.1542965 12.666299,5.8476714 10.41231,8.1015555 C 9.1726165,9.3411918 8.1612029,10.35544 8.1647245,10.35544 c 0.00352,0 0.00419,0.0036 0.0015,0.0079 -0.0027,0.0044 -0.00855,0.0057 -0.013001,0.0029 -0.00445,-0.0028 -0.1826479,0.170336 -0.3959914,0.384638 L 7.3693304,11.140596 7.7499259,10.76203 c 0.2093276,-0.208211 0.3824988,-0.376663 0.3848248,-0.374337 0.00485,0.0049 -1.093027,1.100559 -1.1027454,1.100559 -0.00352,0 -0.1601915,-0.153823 -0.3481614,-0.34183 z m 0.3301114,0.292581 c 0,-0.0013 -0.013184,-0.01449 -0.029297,-0.0293 l -0.029297,-0.02692 0.026923,0.0293 c 0.02506,0.02727 0.031671,0.03289 0.031671,0.02692 z m 0.2070312,-0.153876 c 0.038493,-0.03867 0.068229,-0.07031 0.06608,-0.07031 -0.00215,0 -0.0354,0.03164 -0.073893,0.07031 -0.038493,0.03867 -0.068229,0.07031 -0.06608,0.07031 0.00215,0 0.0354,-0.03164 0.073893,-0.07031 z m -0.3632812,0.0058 c 0,-0.0011 -0.065918,-0.06704 -0.1464844,-0.146484 l -0.1464844,-0.144452 0.1444521,0.146484 c 0.1342106,0.136099 0.1485167,0.150014 0.1485167,0.144452 z M 4.0158634,8.4198929 C 3.868549,8.2623819 3.8611142,8.2548389 3.905563,8.3079864 c 0.046158,0.055192 0.1937649,0.2115158 0.1997203,0.2115158 0.00206,0 -0.038181,-0.044824 -0.08942,-0.099609 z m 3.4444009,-0.140625 c 0.00972,-0.012391 0.00944,-0.012667 -0.00295,-0.00295 -0.013014,0.010206 -0.017152,0.016622 -0.010722,0.016622 0.00162,0 0.00777,-0.00615 0.013672,-0.013672 z m 0.046875,-0.046875 c 0.00972,-0.012391 0.00944,-0.012667 -0.00295,-0.00295 -0.013014,0.010206 -0.017152,0.016622 -0.010722,0.016622 0.00162,0 0.00777,-0.00615 0.013672,-0.013672 z m 0.054687,-0.054687 c 0.00972,-0.012391 0.00944,-0.012667 -0.00295,-0.00295 -0.013014,0.010206 -0.017152,0.016622 -0.010722,0.016622 0.00162,0 0.00777,-0.00615 0.013672,-0.013672 z m 0.03416,-0.033203 c 0.00778,-0.00859 0.012383,-0.015625 0.010234,-0.015625 -0.00215,0 -0.010269,0.00703 -0.018047,0.015625 -0.00778,0.00859 -0.012383,0.015625 -0.010234,0.015625 0.00215,0 0.010269,-0.00703 0.018047,-0.015625 z M 3.8240569,8.1153541 c -0.00198,-0.0076 -0.00373,-0.00327 -0.00389,0.00962 -1.592e-4,0.012891 0.00146,0.01911 0.0036,0.013821 0.00214,-0.00529 0.00227,-0.015836 2.895e-4,-0.023437 z m 3.8109921,-0.00991 c 0.00778,-0.00859 0.012383,-0.015625 0.010234,-0.015625 -0.00215,0 -0.010269,0.00703 -0.018047,0.015625 -0.00778,0.00859 -0.012383,0.015625 -0.010234,0.015625 0.00215,0 0.010269,-0.00703 0.018047,-0.015625 z m 0.039063,-0.039063 c 0.00778,-0.00859 0.012383,-0.015625 0.010234,-0.015625 -0.00215,0 -0.010269,0.00703 -0.018047,0.015625 -0.00778,0.00859 -0.012383,0.015625 -0.010234,0.015625 0.00215,0 0.010269,-0.00703 0.018047,-0.015625 z M 3.8163559,8.0332652 c -0.00187,-0.00972 -0.00347,-0.00361 -0.00356,0.013581 -8.67e-5,0.017188 0.00144,0.025139 0.0034,0.017669 0.00196,-0.00747 0.00203,-0.021532 1.577e-4,-0.03125 z m 3.8968181,-0.00595 c 0.00778,-0.00859 0.012383,-0.015625 0.010234,-0.015625 -0.00215,0 -0.010269,0.00703 -0.018047,0.015625 -0.00778,0.00859 -0.012383,0.015625 -0.010234,0.015625 0.00215,0 0.010269,-0.00703 0.018047,-0.015625 z m 0.039063,-0.039062 c 0.00778,-0.00859 0.012383,-0.015625 0.010234,-0.015625 -0.00215,0 -0.010269,0.00703 -0.018047,0.015625 -0.00778,0.00859 -0.012383,0.015625 -0.010234,0.015625 0.00215,0 0.010269,-0.00703 0.018047,-0.015625 z M 7.7913,7.9491902 c 0.00778,-0.00859 0.012383,-0.015625 0.010234,-0.015625 -0.00215,0 -0.010269,0.00703 -0.018047,0.015625 -0.00778,0.00859 -0.012383,0.015625 -0.010234,0.015625 0.00215,0 0.010269,-0.00703 0.018047,-0.015625 z m -3.9705504,-0.09375 c 0.00297,-0.04635 0.00225,-0.056968 -0.00238,-0.035156 -0.00657,0.030934 -0.010165,0.1110939 -0.0047,0.1048178 0.00156,-0.00179 0.00475,-0.033138 0.00709,-0.069661 z m 4.0096129,0.054687 c 0.00778,-0.00859 0.012383,-0.015625 0.010234,-0.015625 -0.00215,0 -0.010269,0.00703 -0.018047,0.015625 -0.00778,0.00859 -0.012383,0.015625 -0.010234,0.015625 0.00215,0 0.010269,-0.00703 0.018047,-0.015625 z m 0.039063,-0.039063 c 0.00778,-0.00859 0.012383,-0.015625 0.010234,-0.015625 -0.00215,0 -0.010269,0.00703 -0.018047,0.015625 -0.00778,0.00859 -0.012383,0.015625 -0.010234,0.015625 0.00215,0 0.010269,-0.00703 0.018047,-0.015625 z m 0.078125,-0.078125 c 0.00778,-0.00859 0.012383,-0.015625 0.010234,-0.015625 -0.00215,0 -0.010269,0.00703 -0.018047,0.015625 -0.00778,0.00859 -0.012383,0.015625 -0.010234,0.015625 0.00215,0 0.010269,-0.00703 0.018047,-0.015625 z M 3.8465504,7.7166806 c -0.004,-0.004 -0.020173,0.045466 -0.019572,0.059847 2.875e-4,0.00688 0.00541,-0.00317 0.011379,-0.022339 0.00597,-0.019165 0.00966,-0.036043 0.00819,-0.037508 z m 4.1371514,0.03915 c 0.00972,-0.012391 0.00944,-0.012667 -0.00295,-0.00295 -0.00752,0.0059 -0.013672,0.01205 -0.013672,0.013672 0,0.00643 0.00642,0.00229 0.016622,-0.010722 z m 0.042464,-0.042969 0.022946,-0.025391 -0.025391,0.022946 c -0.013965,0.01262 -0.025391,0.024046 -0.025391,0.025391 0,0.00604 0.00645,7.218e-4 0.027835,-0.022946 z M 3.8648906,7.6835648 c 0.00877,-0.018416 0.00861,-0.018666 -0.00285,-0.00437 -0.00668,0.00834 -0.01215,0.018595 -0.01215,0.022786 0,0.00993 0.00361,0.00549 0.014998,-0.01842 z m 4.2047487,-0.013672 c 0.00972,-0.012391 0.00944,-0.012667 -0.00295,-0.00295 -0.00752,0.0059 -0.013672,0.01205 -0.013672,0.013672 0,0.00643 0.00642,0.00229 0.016622,-0.010722 z M 3.9162655,7.6112992 c 0.020696,-0.026856 0.030634,-0.04266 0.022084,-0.035121 -0.016174,0.01426 -0.068349,0.083949 -0.062852,0.083949 0.00173,0 0.020071,-0.021973 0.040768,-0.048828 z m 4.1875335,0.025391 c 0.00778,-0.00859 0.012383,-0.015625 0.010234,-0.015625 -0.00215,0 -0.010269,0.00703 -0.018047,0.015625 -0.00778,0.00859 -0.012383,0.015625 -0.010234,0.015625 0.00215,0 0.010269,-0.00703 0.018047,-0.015625 z m 0.042969,-0.042969 c 0.010092,-0.010742 0.016591,-0.019531 0.014442,-0.019531 -0.00215,0 -0.012163,0.00879 -0.022255,0.019531 -0.010092,0.010742 -0.016591,0.019531 -0.014442,0.019531 0.00215,0 0.012163,-0.00879 0.022255,-0.019531 z m -4.1640623,-0.0625 c 0.014576,-0.015039 0.024745,-0.027344 0.022596,-0.027344 -0.00215,0 -0.015832,0.012305 -0.030409,0.027344 -0.014576,0.015039 -0.024745,0.027344 -0.022596,0.027344 0.00215,0 0.015832,-0.012305 0.030409,-0.027344 z m 0.066406,-0.074219 c 0.021161,-0.021484 0.036717,-0.039063 0.034569,-0.039063 -0.00215,0 -0.02122,0.017578 -0.042381,0.039063 -0.021161,0.021484 -0.036717,0.039063 -0.034569,0.039063 0.00215,0 0.02122,-0.017578 0.042381,-0.039063 z m 0.1875,-0.1953125 c 0.072952,-0.073047 0.1308823,-0.1328125 0.1287339,-0.1328125 -0.00215,0 -0.063594,0.059766 -0.1365464,0.1328125 -0.072952,0.073047 -0.1308823,0.1328125 -0.1287338,0.1328125 0.00215,0 0.063594,-0.059766 0.1365463,-0.1328125 z m 0.364642,-0.3222655 c 0.049684,-0.030107 0.056334,-0.039277 0.011923,-0.01644 -0.035501,0.018255 -0.101962,0.070951 -0.1656277,0.1313241 -0.042226,0.040042 -0.036453,0.0362 0.025335,-0.016864 0.044013,-0.037798 0.1017787,-0.081907 0.1283697,-0.09802 z m 0.5767641,-0.037109 c -0.00645,-0.00417 -0.015234,-0.00757 -0.019531,-0.00757 -0.0043,0 -0.00254,0.00341 0.00391,0.00757 0.00645,0.00417 0.015234,0.00757 0.019531,0.00757 0.0043,0 0.00254,-0.00341 -0.00391,-0.00757 z M 4.722777,6.8897822 c -0.0026,-0.0026 -0.00933,-0.00287 -0.014974,-6.164e-4 -0.00623,0.00249 -0.00438,0.00435 0.00472,0.00472 0.00824,3.391e-4 0.01285,-0.00151 0.010254,-0.0041 z m 0.4122721,-0.00309 c -0.00859,-0.00369 -0.022656,-0.00661 -0.03125,-0.00648 -0.012561,1.844e-4 -0.011795,0.00146 0.00391,0.00648 0.026712,0.00855 0.047252,0.00855 0.027344,0 z M 4.758096,6.8815158 c -0.00537,-0.00217 -0.01416,-0.00217 -0.019531,0 -0.00537,0.00217 -9.765e-4,0.00394 0.00977,0.00394 0.010742,0 0.015137,-0.00177 0.00977,-0.00394 z m 0.047024,-0.00776 c -0.00529,-0.00214 -0.015836,-0.00227 -0.023437,-2.899e-4 -0.0076,0.00198 -0.00327,0.00373 0.00962,0.00389 0.012891,1.594e-4 0.01911,-0.00146 0.013821,-0.0036 z m 0.2734374,0 c -0.00529,-0.00214 -0.015836,-0.00227 -0.023437,-2.899e-4 -0.0076,0.00198 -0.00327,0.00373 0.00962,0.00389 0.012891,1.594e-4 0.01911,-0.00146 0.013821,-0.0036 z m -0.09424,-0.0085 c -0.03134,-0.00149 -0.080559,-0.00148 -0.109375,2.34e-5 -0.028816,0.0015 -0.00317,0.00272 0.056982,0.0027 0.060156,-1.57e-5 0.083733,-0.00124 0.052393,-0.00273 z"
       id="path35"
       inkscape:connector-curvature="0"
       transform="translate(0,1036.3622)" />
    <path
       style="fill:#008000;fill-opacity:1;stroke-width:0.00390625"
       d="m 8.3543405,10.175628 c 0,-0.002 0.014502,-0.01926 0.032227,-0.03829 0.017725,-0.01904 0.9183419,-0.9215177 2.0013725,-2.0055078 1.320017,-1.3211889 1.971284,-1.9704379 1.975633,-1.9695161 0.0044,9.237e-4 -0.652374,0.6602225 -2.001372,2.009186 C 9.2578777,9.2757912 8.3543405,10.177651 8.3543405,10.175628 Z"
       id="path41"
       inkscape:connector-curvature="0"
       transform="translate(0,1036.3622)" />
    <path
       style="fill:#008000;fill-opacity:1;stroke-width:0.00390625"
       d="M 6.0942907,10.555286 C 4.4912982,8.9510014 3.933574,8.3883151 3.8950797,8.336508 3.8560989,8.2840462 3.8123576,8.181597 3.7948531,8.1017612 c -0.00768,-0.035019 -0.00869,-0.050796 -0.00865,-0.1353428 6.21e-5,-0.1398487 0.0097,-0.1836443 0.064092,-0.2912628 0.053953,-0.1067482 0.073392,-0.1294483 0.3334783,-0.3894268 0.3161832,-0.3160516 0.3739633,-0.3650083 0.4784044,-0.4053495 0.098466,-0.038034 0.1333808,-0.04404 0.2585678,-0.044482 0.08847,-3.125e-4 0.098508,3.653e-4 0.1328125,0.00897 0.074367,0.018644 0.1462809,0.047248 0.2044043,0.081302 0.025293,0.014819 0.05633,0.042962 0.1796221,0.1628734 0.1326943,0.1290559 0.6281146,0.6210555 1.3513299,1.3419993 l 0.2451218,0.2443521 1.2568336,-1.256829 1.2568336,-1.256829 h 1.4042926 1.404292 L 11.080901,7.438098 9.8055124,8.7144652 11.007499,7.5134573 c 0.661093,-0.6605543 1.203042,-1.199953 1.204331,-1.1986637 0.0013,0.00129 -0.778421,0.7831023 -1.73269,1.7373623 -0.9542683,0.95426 -1.7360843,1.7339675 -1.7373683,1.7326834 -0.00128,-0.00128 0.2366532,-0.2417728 0.52875,-0.5344192 C 9.5820182,8.9383369 9.5120018,9.0075709 9.1011831,9.417866 8.7159506,9.8026077 8.4013022,10.119208 8.4019643,10.121422 c 6.625e-4,0.0022 -0.03056,0.03548 -0.069382,0.07392 -0.038823,0.03844 -0.2005418,0.201593 -0.359375,0.362551 -0.1588336,0.160958 -0.4193834,0.421554 -0.5789995,0.579101 L 7.1039961,11.42345 h -0.07112 -0.07112 z m 1.795206,0.06934 c 0.082694,-0.08272 0.1494739,-0.150391 0.1483996,-0.150391 -0.00107,0 -0.069612,0.06768 -0.1523058,0.150391 -0.082694,0.08271 -0.1494738,0.15039 -0.1483996,0.15039 0.00107,0 0.069612,-0.06768 0.1523058,-0.15039 z M 5.564669,10.004504 C 5.2438443,9.6817016 4.9313667,9.3674926 4.8702741,9.3062622 c -0.061093,-0.061231 -0.013645,-0.012051 0.1054398,0.109288 0.215789,0.2198743 1.1675306,1.1758678 1.1706378,1.1758678 8.992e-4,0 -0.260858,-0.264111 -0.5816827,-0.586914 z M 4.6453561,9.0757934 c -0.045079,-0.045117 -0.08284,-0.082031 -0.083915,-0.082031 -0.00107,0 0.03493,0.036914 0.080008,0.082031 0.045079,0.045117 0.08284,0.082031 0.083915,0.082031 0.00107,0 -0.03493,-0.036914 -0.080008,-0.082031 z M 4.4180142,8.842395 C 4.3494502,8.7720336 4.2540088,8.6735961 4.205922,8.623645 4.157835,8.573694 4.117632,8.532825 4.116582,8.532825 c -0.00236,0 0.015378,0.018481 0.2408943,0.2510071 0.099479,0.1025711 0.1818446,0.1864929 0.1830349,0.1864929 0.00119,0 -0.053934,-0.057568 -0.122497,-0.12793 z M 4.0161856,8.4234497 c -0.044408,-0.047266 -0.081609,-0.085937 -0.08267,-0.085937 -0.00219,0 0.068479,0.076473 0.1235637,0.1337144 0.020198,0.020988 0.037426,0.038161 0.038285,0.038161 8.592e-4,0 -0.034771,-0.038672 -0.079179,-0.085937 z m 2.51392,-0.2326741 C 6.4323606,8.092883 6.2574655,7.9193759 6.1414499,7.8052042 6.0254342,7.6910325 6.1045358,7.7710311 6.3172311,7.982979 6.5299264,8.1949267 6.7048215,8.3684339 6.7058869,8.3685504 6.7069522,8.3686668 6.6278507,8.2886682 6.5301056,8.1907756 Z M 3.9324655,8.3324191 c 0,-6.528e-4 -0.00659,-0.00724 -0.014649,-0.014648 l -0.014648,-0.013462 0.013462,0.014648 c 0.01253,0.013634 0.015835,0.016445 0.015835,0.013462 z M 3.8532661,8.2321308 c -0.00452,-0.010694 -0.00891,-0.01875 -0.00976,-0.017903 -0.00184,0.00184 0.013493,0.037347 0.016134,0.037347 0.00101,0 -0.00186,-0.00875 -0.00638,-0.019444 z m -0.015993,-0.045573 c -0.0032,-0.010432 -0.00594,-0.01633 -0.00608,-0.013108 -3.664e-4,0.00858 0.00776,0.036215 0.00999,0.033982 0.00105,-0.00105 -7.147e-4,-0.010442 -0.00392,-0.020874 z M 3.8141696,7.88927 c -8.95e-4,-0.00591 -0.00163,-0.00107 -0.00163,0.010742 0,0.011816 7.323e-4,0.01665 0.00163,0.010742 8.95e-4,-0.00591 8.95e-4,-0.015576 0,-0.021484 z m 0.00607,-0.049805 c 0.00129,-0.016585 9.142e-4,-0.022733 -9.569e-4,-0.015625 -0.00313,0.011873 -0.0052,0.04759 -0.00259,0.044596 7.805e-4,-8.952e-4 0.00238,-0.013932 0.00355,-0.028971 z m 0.013327,-0.080811 c -0.00125,-0.00312 -0.00217,-0.00219 -0.00236,0.00236 -1.696e-4,0.00412 7.536e-4,0.00642 0.00205,0.00513 0.0013,-0.0013 0.00144,-0.00467 3.084e-4,-0.00749 z m 0.0085,-0.026611 c 0,-0.00369 -0.00124,-0.00297 -0.00336,0.00195 -0.00185,0.0043 -0.00336,0.010449 -0.00336,0.013672 0,0.00369 0.00124,0.00297 0.00336,-0.00195 0.00185,-0.0043 0.00336,-0.010449 0.00336,-0.013672 z m 0.063049,-0.109375 c 0.00681,-0.00859 0.011496,-0.015625 0.010422,-0.015625 -0.00107,0 -0.00752,0.00703 -0.014328,0.015625 -0.00681,0.00859 -0.011496,0.015625 -0.010422,0.015625 0.00107,0 0.00752,-0.00703 0.014328,-0.015625 z m 0.021484,-0.027344 c 0.00389,-0.0043 0.00619,-0.00781 0.00512,-0.00781 -0.00107,0 -0.00513,0.00352 -0.00902,0.00781 -0.00389,0.0043 -0.00619,0.00781 -0.00512,0.00781 0.00107,0 0.00513,-0.00352 0.00902,-0.00781 z M 5.8132146,7.4828861 C 5.6456807,7.317729 5.4262995,7.1095015 5.330903,7.0250961 c -0.053482,-0.04732 -0.022175,-0.01696 0.080142,0.077716 0.1042395,0.096456 0.3004404,0.2838201 0.4041277,0.3859264 0.044101,0.043429 0.081062,0.078964 0.082137,0.078968 0.00107,3.8e-6 -0.036768,-0.038165 -0.084095,-0.08482 z m -1.847546,0.065564 c 0.00389,-0.0043 0.00619,-0.00781 0.00512,-0.00781 -0.00107,0 -0.00513,0.00352 -0.00902,0.00781 -0.00389,0.0043 -0.00619,0.00781 -0.00512,0.00781 0.00107,0 0.00513,-0.00352 0.00902,-0.00781 z m 0.023683,-0.02832 0.011473,-0.012695 -0.012695,0.011473 c -0.011834,0.010695 -0.014491,0.013918 -0.011473,0.013918 6.723e-4,0 0.00639,-0.00571 0.012695,-0.012695 z m 0.033456,-0.03711 c 0.00486,-0.0062 0.00472,-0.00633 -0.00147,-0.00147 -0.00651,0.0051 -0.00858,0.00831 -0.00536,0.00831 8.111e-4,0 0.00389,-0.00308 0.00684,-0.00684 z m 0.038564,-0.041992 c 0.00505,-0.00537 0.0083,-0.00977 0.00722,-0.00977 -0.00107,0 -0.00608,0.00439 -0.011127,0.00977 -0.00505,0.00537 -0.0083,0.00977 -0.00722,0.00977 0.00107,0 0.00608,-0.00439 0.011127,-0.00977 z M 4.455903,7.0504028 c 0.00729,-0.00752 0.012372,-0.013672 0.011298,-0.013672 -0.00107,0 -0.00792,0.00615 -0.015204,0.013672 -0.00729,0.00752 -0.012372,0.013672 -0.011298,0.013672 0.00107,0 0.00792,-0.00615 0.015204,-0.013672 z m 0.1113383,-0.091521 c 0.02705,-0.019656 0.036516,-0.028374 0.019521,-0.017978 -0.018201,0.011134 -0.071906,0.053824 -0.095703,0.076074 -0.012156,0.011366 -0.00537,0.00681 0.015635,-0.010492 0.020416,-0.016819 0.047662,-0.038241 0.060547,-0.047604 z m 0.7206929,0.029702 c 0,-6.997e-4 -0.00483,-0.00553 -0.010742,-0.010742 l -0.010742,-0.00947 0.00947,0.010742 c 0.00885,0.01004 0.012014,0.012534 0.012014,0.00947 z m -0.65625,-0.071152 c 0,-0.00107 -0.00703,0.00163 -0.015625,0.00602 -0.00859,0.00438 -0.015625,0.00885 -0.015625,0.00992 0,0.00107 0.00703,-0.00163 0.015625,-0.00602 0.00859,-0.00438 0.015625,-0.00885 0.015625,-0.00992 z m 0.5390625,-0.017419 c -0.00322,-0.00208 -0.00762,-0.00379 -0.00977,-0.00379 -0.00215,0 -0.00127,0.0017 0.00195,0.00379 0.00322,0.00208 0.00762,0.00379 0.00977,0.00379 0.00215,0 0.00127,-0.0017 -0.00195,-0.00379 z M 5.12672,6.8859334 c -0.0013,-0.0013 -0.00467,-0.00144 -0.00749,-3.082e-4 -0.00312,0.00125 -0.00219,0.00217 0.00236,0.00236 0.00412,1.695e-4 0.00643,-7.537e-4 0.00513,-0.00205 z m -0.375,-0.00391 c -0.0013,-0.0013 -0.00467,-0.00144 -0.00749,-3.082e-4 -0.00312,0.00125 -0.00219,0.00217 0.00236,0.00236 0.00412,1.695e-4 0.00643,-7.536e-4 0.00513,-0.00205 z m 0.359375,0 c -0.0013,-0.0013 -0.00467,-0.00144 -0.00749,-3.082e-4 -0.00312,0.00125 -0.00219,0.00217 0.00236,0.00236 0.00412,1.695e-4 0.00643,-7.536e-4 0.00513,-0.00205 z m -0.3103911,-0.00801 c -0.00264,-0.00107 -0.00792,-0.00114 -0.011719,-1.449e-4 -0.0038,9.904e-4 -0.00164,0.00187 0.00481,0.00195 0.00645,7.97e-5 0.00955,-7.307e-4 0.00691,-0.0018 z M 5.0701608,6.87399 c -0.00269,-0.00108 -0.00708,-0.00108 -0.00977,0 -0.00269,0.00108 -4.883e-4,0.00197 0.00488,0.00197 0.00537,0 0.00757,-8.866e-4 0.00488,-0.00197 z M 4.8884388,6.8664 c -0.0013,-0.0013 -0.00467,-0.00144 -0.00749,-3.082e-4 -0.00312,0.00125 -0.00219,0.00217 0.00236,0.00236 0.00412,1.696e-4 0.00642,-7.536e-4 0.00513,-0.00205 z m 0.091878,-2.269e-4 c -0.00269,-0.00108 -0.00708,-0.00108 -0.00977,0 -0.00269,0.00108 -4.883e-4,0.00197 0.00488,0.00197 0.00537,0 0.00757,-8.867e-4 0.00488,-0.00197 z"
       id="path43"
       inkscape:connector-curvature="0"
       transform="translate(0,1036.3622)" />
    <path
       style="fill:#008000;fill-opacity:1;stroke-width:0.00390625"
       d=""
       id="path47"
       inkscape:connector-curvature="0"
       transform="translate(0,1036.3622)" />
    <path
       style="fill:#008000;fill-opacity:1;stroke-width:0.00390625"
       d="M 7.127957,8.7506703 V 8.5797696 L 8.3379179,7.3707826 C 9.0033965,6.7058399 9.9376776,5.7724481 10.414098,5.2965787 l 0.86622,-0.865217 0.705063,0.7050551 0.705063,0.7050551 -0.164791,0.1648256 c -0.09064,0.090654 -0.165914,0.1641322 -0.167285,0.1632846 -0.0014,-8.476e-4 -0.01373,0.0098 -0.02747,0.023661 -0.01374,0.013861 -0.02679,0.025203 -0.029,0.025203 -0.0022,0 -0.22287,0.2192705 -0.490347,0.4872677 -0.267477,0.2679972 -0.345297,0.346767 -0.172932,0.175044 0.172365,-0.171723 0.314674,-0.3109403 0.316242,-0.3093718 0.0016,0.00157 -0.525296,0.5310019 -1.17081,1.1765185 L 9.6103838,8.9215711 H 8.3691704 7.127957 Z m 5.538654,-2.9203857 c -0.0073,-0.00724 -0.01464,-0.01237 -0.01633,-0.011402 -0.0028,0.00161 0.02301,0.024564 0.02761,0.024564 0.0011,0 -0.004,-0.00592 -0.01128,-0.013162 z m -0.02615,-0.023534 c 3.55e-4,-0.00595 -0.09898,-0.1079615 -0.102821,-0.1055884 -0.0021,0.00127 -0.286356,-0.2789748 -0.631767,-0.6227735 L 11.27785,4.4532998 10.983177,4.7489589 10.688504,5.044618 10.983433,4.7506754 11.278361,4.4567328 11.956086,5.1344655 c 0.372748,0.372753 0.679176,0.6772489 0.68095,0.6766575 0.0018,-5.914e-4 0.0033,-0.00256 0.0034,-0.00437 z M 10.59866,5.1364149 c 0.0039,-0.0043 0.0062,-0.00781 0.0051,-0.00781 -0.0011,0 -0.0051,0.00352 -0.009,0.00781 -0.0039,0.0043 -0.0062,0.00781 -0.0051,0.00781 0.0011,0 0.0051,-0.00352 0.009,-0.00781 z m 0.05469,-0.054687 c 0.01058,-0.010742 0.01836,-0.019531 0.01728,-0.019531 -0.0011,0 -0.01061,0.00879 -0.02119,0.019531 -0.01058,0.010742 -0.01836,0.019531 -0.01728,0.019531 0.0011,0 0.01061,-0.00879 0.02119,-0.019531 z"
       id="path49"
       inkscape:connector-curvature="0"
       transform="translate(0,1036.3622)" />
    <path
       style="fill:#008000;fill-opacity:1;stroke-width:0.00390625"
       d="M 7.127957,8.75062 V 8.5796692 L 8.5976836,7.1110216 C 9.4060332,6.3032655 10.340311,5.3698927 10.673856,5.0368598 l 0.606446,-0.6055143 0.703124,0.7031166 c 0.386719,0.3867141 0.703125,0.7051655 0.703125,0.7076698 0,0.00509 -0.304194,0.3045333 -0.365235,0.3595341 -0.05329,0.048013 -0.406991,0.3999412 -0.383789,0.3818605 0.01021,-0.00795 0.01856,-0.012928 0.01856,-0.011056 0,0.00187 -0.527784,0.5311848 -1.172854,1.1762518 L 9.610374,8.9215711 H 8.3691655 7.127957 Z m 4.730469,-2.0888145 c 0.005,-0.00537 0.0083,-0.00977 0.0072,-0.00977 -0.0011,0 -0.0061,0.00439 -0.01113,0.00977 -0.005,0.00537 -0.0083,0.00977 -0.0072,0.00977 0.0011,0 0.0061,-0.00439 0.01113,-0.00977 z m 0.03711,-0.037109 c 0.0039,-0.0043 0.0062,-0.00781 0.0051,-0.00781 -0.0011,0 -0.0051,0.00352 -0.009,0.00781 -0.0039,0.0043 -0.0062,0.00781 -0.0051,0.00781 0.0011,0 0.0051,-0.00352 0.009,-0.00781 z m 0.777017,-0.7894243 c -0.0041,-0.0045 -0.01093,-0.01 -0.01525,-0.012225 -0.0056,-0.00289 -0.0046,-5.527e-4 0.0036,0.00817 0.01259,0.013417 0.02357,0.01724 0.01164,0.00405 z m -0.04268,-0.038741 c -0.0062,-0.00642 -0.0096,-0.011678 -0.0076,-0.011678 0.002,0 -0.01471,-0.018365 -0.03708,-0.040812 -0.02237,-0.022446 -0.04227,-0.039822 -0.04423,-0.038613 -0.002,0.00121 0.0031,0.00903 0.01126,0.017374 0.0081,0.00835 0.0132,0.015176 0.01122,0.015176 -0.002,0 0.01393,0.016498 0.03534,0.036662 0.02141,0.020164 0.03969,0.035966 0.0406,0.035116 9.18e-4,-8.505e-4 -0.0034,-0.0068 -0.0095,-0.013224 z M 11.991238,5.1666803 c 0,-5.415e-4 -0.160427,-0.161405 -0.356506,-0.3574745 l -0.356505,-0.35649 -0.02533,0.02642 -0.02533,0.02642 0.02545,-0.024366 0.02545,-0.024366 0.355404,0.3554204 c 0.195472,0.1954813 0.355847,0.3554205 0.356388,0.3554205 5.42e-4,0 9.85e-4,-4.431e-4 9.85e-4,-9.846e-4 z"
       id="path51"
       inkscape:connector-curvature="0"
       transform="translate(0,1036.3622)" />
    <path
       style="fill:#008000;fill-opacity:1;stroke-width:0.00390625"
       d="M 7.127957,8.7501215 V 8.5786719 L 9.2026941,6.5058281 c 1.1411049,-1.140064 2.0762199,-2.0723355 2.0780319,-2.0717144 0.0067,0.00229 1.405825,1.4031454 1.405825,1.4075397 0,0.00519 -0.225438,0.2290469 -0.316477,0.3142562 -0.09942,0.093053 -0.417658,0.411328 -0.415222,0.4152693 0.0012,0.00201 -0.525754,0.531671 -1.171105,1.1770237 L 9.6103838,8.9215711 H 8.3691704 7.127957 Z m 5.544935,-2.9144669 c -0.0013,-0.00214 -0.0063,-0.00591 -0.01097,-0.00838 -0.0085,-0.00446 -0.0085,-0.00444 -0.0011,0.00389 0.0075,0.0084 0.01662,0.0118 0.0121,0.0045 z m -0.06435,-0.060448 c -0.0181,-0.018196 -0.03379,-0.032205 -0.03486,-0.031133 -0.0026,0.00255 0.05877,0.064216 0.06386,0.064216 0.0022,0 -0.0109,-0.014887 -0.029,-0.033083 z m -0.04027,-0.041293 c -7.58e-4,-0.010071 -0.01272,-0.021579 -0.01633,-0.015722 -0.0014,0.00229 -4.18e-4,0.00416 0.0022,0.00416 0.0026,0 0.0036,0.00118 0.0022,0.00261 -0.0014,0.00144 3.01e-4,0.00583 0.0039,0.00977 0.0082,0.00901 0.0088,0.00895 0.0081,-8.172e-4 z M 11.991238,5.1666803 c 0,-5.416e-4 -0.1604,-0.1609419 -0.356445,-0.3564453 l -0.356445,-0.3554607 0.35546,0.3564453 c 0.195504,0.1960449 0.355904,0.3564453 0.356445,0.3564453 5.42e-4,0 9.85e-4,-4.431e-4 9.85e-4,-9.846e-4 z"
       id="path53"
       inkscape:connector-curvature="0"
       transform="translate(0,1036.3622)" />
    <path
       style="fill:#008000;fill-opacity:1;stroke-width:0.00390625"
       d="M 7.127957,8.7504633 V 8.5793559 L 9.2016363,6.5063228 C 10.34216,5.3661547 11.276878,4.4332899 11.278789,4.4332899 c 0.0019,0 0.320456,0.3169868 0.70788,0.7044152 l 0.704407,0.7044152 -0.244746,0.2418738 c -0.13461,0.1330307 -0.24681,0.2418739 -0.249333,0.2418739 -0.0025,0 -0.0046,0.00176 -0.0046,0.00391 -1.09e-4,0.00726 -0.0063,0.013816 -0.01058,0.011179 -0.0024,-0.00146 -0.0031,-8.228e-4 -0.0017,0.00145 0.0014,0.00224 -1.06e-4,0.00624 -0.0033,0.00889 -0.0032,0.00265 -0.0058,0.00338 -0.0058,0.00161 0,-0.00177 -0.0022,-0.00102 -0.0049,0.00167 -0.0027,0.00269 -0.0049,0.00655 -0.0049,0.00859 0,0.00204 -0.0018,0.00384 -0.0039,0.00399 -0.0066,4.677e-4 -0.01754,0.01225 -0.0151,0.016204 0.0013,0.00205 -0.567823,0.573979 -1.26464,1.2709623 L 9.6105797,8.9215711 H 8.3692684 7.127957 Z m 5.5,-2.9534899 c 0,-0.00193 -0.01274,-0.014557 -0.02832,-0.028066 l -0.02832,-0.024562 0.02724,0.028066 c 0.02864,0.029504 0.0294,0.030145 0.0294,0.024562 z"
       id="path55"
       inkscape:connector-curvature="0"
       transform="translate(0,1036.3622)" />
    <path
       style="fill:#008000;fill-opacity:1;stroke-width:0.00390625"
       d="M 7.127957,8.7503883 V 8.5792055 l 2.07385,-2.0729579 c 1.140618,-1.1401267 2.075336,-2.0729577 2.077153,-2.0729577 0.0018,0 0.320275,0.3169763 0.707686,0.7043918 l 0.704383,0.7043918 -0.258499,0.2555691 c -0.142175,0.1405631 -0.260516,0.2555692 -0.262981,0.2555692 -0.0025,0 -0.0045,0.00211 -0.0045,0.00469 0,0.00258 -0.0022,0.00688 -0.0049,0.00957 -0.0027,0.00269 -0.0049,0.00344 -0.0049,0.00167 0,-0.00177 -0.0026,-0.00104 -0.0058,0.00161 -0.0032,0.00265 -0.0048,0.00646 -0.0036,0.00845 0.0012,0.00199 -0.568653,0.5748424 -1.266414,1.2729949 L 9.6108386,8.9215711 H 8.3693978 7.127957 Z m 5.494141,-2.9616297 c -0.0013,-0.00215 -0.0042,-0.00391 -0.0063,-0.00391 -0.0021,0 -0.0028,0.00176 -0.0015,0.00391 0.0013,0.00215 0.0042,0.00391 0.0063,0.00391 0.0021,0 0.0028,-0.00176 0.0015,-0.00391 z M 12.60452,5.775853 c 0,-6.527e-4 -0.0066,-0.00724 -0.01465,-0.014648 l -0.01465,-0.013462 0.01346,0.014648 c 0.01253,0.013634 0.01584,0.016444 0.01584,0.013462 z"
       id="path57"
       inkscape:connector-curvature="0"
       transform="translate(0,1036.3622)" />
  </g>
</svg>
