<?xml version="1.0" encoding="UTF-8" standalone="no"?>
<!-- Created with Inkscape (http://www.inkscape.org/) -->

<svg
   xmlns:dc="http://purl.org/dc/elements/1.1/"
   xmlns:cc="http://creativecommons.org/ns#"
   xmlns:rdf="http://www.w3.org/1999/02/22-rdf-syntax-ns#"
   xmlns:svg="http://www.w3.org/2000/svg"
   xmlns="http://www.w3.org/2000/svg"
   xmlns:sodipodi="http://sodipodi.sourceforge.net/DTD/sodipodi-0.dtd"
   xmlns:inkscape="http://www.inkscape.org/namespaces/inkscape"
   width="16"
   height="16"
   id="svg2"
   version="1.1"
   inkscape:version="0.92.3 (2405546, 2018-03-11)"
   sodipodi:docname="checkbox-checked-focused.svg"
   inkscape:export-filename="/home/steffen/.local/share/themes/neu2/gtk-3.0/assets/dark/checkbox-unchecked.png"
   inkscape:export-xdpi="90"
   inkscape:export-ydpi="90">
  <defs
     id="defs4">
    <linearGradient
       id="linearGradient3768-6">
      <stop
         style="stop-color:#0f0f0f;stop-opacity:1;"
         offset="0"
         id="stop3770-6" />
      <stop
         id="stop3778-2"
         offset="0.078125"
         style="stop-color:#171717;stop-opacity:1;" />
      <stop
         style="stop-color:#171717;stop-opacity:1;"
         offset="0.97355771"
         id="stop3774-0" />
      <stop
         style="stop-color:#1b1b1b;stop-opacity:1;"
         offset="1"
         id="stop3776-1" />
    </linearGradient>
  </defs>
  <sodipodi:namedview
     id="base"
     pagecolor="#ffffff"
     bordercolor="#666666"
     borderopacity="1.0"
     inkscape:pageopacity="0.0"
     inkscape:pageshadow="2"
     inkscape:zoom="32"
     inkscape:cx="16.134122"
     inkscape:cy="12.376089"
     inkscape:document-units="px"
     inkscape:current-layer="layer1"
     showgrid="true"
     inkscape:snap-bbox="true"
     showguides="true"
     inkscape:guide-bbox="true"
     inkscape:showpageshadow="false"
     showborder="true"
     inkscape:window-width="1920"
     inkscape:window-height="1013"
     inkscape:window-x="0"
     inkscape:window-y="0"
     inkscape:window-maximized="1"
     inkscape:bbox-paths="true"
     inkscape:bbox-nodes="true"
     inkscape:snap-bbox-edge-midpoints="true">
    <inkscape:grid
       type="xygrid"
       id="grid2985"
       empspacing="5"
       visible="true"
       enabled="true"
       snapvisiblegridlinesonly="true" />
  </sodipodi:namedview>
  <metadata
     id="metadata7">
    <rdf:RDF>
      <cc:Work
         rdf:about="">
        <dc:format>image/svg+xml</dc:format>
        <dc:type
           rdf:resource="http://purl.org/dc/dcmitype/StillImage" />
        <dc:title />
      </cc:Work>
    </rdf:RDF>
  </metadata>
  <g
     inkscape:label="Ebene 1"
     inkscape:groupmode="layer"
     id="layer1"
     transform="translate(0,-1036.3622)">
    <g
       transform="translate(-36,1036)"
       style="display:inline;opacity:1"
       id="checkbox-checked-dark"
       inkscape:label="#g10758">
      <g
         inkscape:label="#g22047"
         id="checkbox-unchecked-5-59"
         style="display:inline"
         transform="translate(19,0)">
        <g
           id="sdsd-7-54"
           inkscape:label="#g21853">
          <g
             transform="translate(0,-30)"
             inkscape:label="#g14325"
             id="scdsdcd-5-8">
            <g
               transform="matrix(0.92951982,0,0,0.92914368,-156.75069,-212.9618)"
               id="g15812-6-6-1-5-4"
               style="display:inline">
              <g
                 style="display:inline"
                 id="g5489-2-9-6-8-8-53-5"
                 transform="matrix(0.5089163,0,0,0.51739823,161.7932,197.56426)">
                <g
                   id="g5428-8-1-4-0-0-4-2" />
              </g>
            </g>
            <rect
               style="color:#000000;display:inline;overflow:visible;visibility:visible;fill:none;stroke:none;stroke-width:2;marker:none;enable-background:accumulate"
               id="rect13523-7-11"
               width="16"
               height="16"
               x="17"
               y="30.362183" />
            <g
               id="g5400-6-68">
              <rect
                 rx="1.9999943"
                 y="31.362196"
                 x="18.000006"
                 height="13.99999"
                 width="13.999989"
                 id="rect5147-9-1-5-7-6-7-4"
                 style="color:#000000;display:inline;overflow:visible;visibility:visible;fill:#8f8f8f;fill-opacity:1;stroke:#000000;stroke-width:0;stroke-linecap:butt;stroke-linejoin:round;stroke-miterlimit:4;stroke-dasharray:none;stroke-dashoffset:0;stroke-opacity:1;marker:none;enable-background:accumulate"
                 ry="1.9999917" />
            </g>
          </g>
        </g>
      </g>
      <g
         inkscape:label="Ebene 1"
         id="checkbox-checked-dark-7-37"
         transform="translate(36,-1036)"
         style="display:inline">
        <g
           id="g3981-6-4-97"
           transform="matrix(0.70710678,0.70710678,-0.70710678,0.70710678,729.95475,305.0582)"
           style="opacity:0.85;fill:#1a1a1a;fill-opacity:1" />
        <g
           id="g4049-2-5"
           transform="matrix(0.70710678,0.70710678,-0.70710678,0.70710678,727.94436,295.31123)">
          <g
             id="g4056-7-6"
             transform="translate(12.374375,11.531233)">
            <g
               id="g3981-0-8"
               transform="translate(-3,-4.9999826)"
               style="fill:#3b3c3e;fill-opacity:1">
              <rect
                 ry="0.66666085"
                 rx="0.66666085"
                 y="1033.3622"
                 x="8"
                 height="1.9999826"
                 width="5"
                 id="rect3977-39-90"
                 style="fill:#2f2f2f;fill-opacity:1;stroke:none" />
              <rect
                 ry="0"
                 y="1027.3622"
                 x="11"
                 height="7.9999828"
                 width="2"
                 id="rect3979-7-60"
                 style="fill:#2f2f2f;fill-opacity:1;stroke:none" />
            </g>
            <rect
               style="fill:#eeeeee;fill-opacity:0;stroke:none"
               id="rect4047-81-5"
               width="3"
               height="1"
               x="5"
               y="-8"
               transform="translate(0,1036.3622)" />
          </g>
        </g>
      </g>
    </g>
    <path
       style="fill:#008000;fill-opacity:1;stroke-width:0.01104854"
       d="M 5.4766873,9.9361168 C 4.4844576,8.9426487 3.9048759,8.3544235 3.8819494,8.3175961 3.760794,8.1229813 3.7508987,7.8728365 3.8559367,7.6600166 3.8915669,7.5878254 3.9265223,7.5489042 4.2114897,7.2641259 4.4881091,6.9876903 4.5373163,6.9432791 4.6060068,6.9080608 c 0.1936266,-0.099274 0.4228662,-0.099269 0.61644,1.1e-5 0.072213,0.037038 0.1477283,0.1093491 0.9457896,0.9056607 L 7.035547,8.6791453 9.1568889,6.5578836 11.278231,4.436622 11.982542,5.1409976 12.686853,5.8453731 9.8611311,8.6710787 7.0354094,11.496784 Z"
       id="path31"
       inkscape:connector-curvature="0"
       transform="translate(0,1036.3622)" />
    <path
       style="fill:#008000;fill-opacity:1;stroke-width:0.00552427"
       d="M 5.6725463,10.12902 C 4.5903304,9.0452222 4.0992072,8.5496204 3.9434503,8.3841559 3.8762193,8.3127347 3.8484559,8.2674395 3.8201962,8.1830711 3.7971966,8.1144062 3.7864281,8.0467472 3.7864543,7.9710683 3.7865111,7.8068711 3.8349873,7.665838 3.9290911,7.5560905 3.9725118,7.5054516 4.359368,7.1161672 4.451107,7.0307978 4.5432721,6.9450321 4.5905827,6.912478 4.6657787,6.883084 4.7475867,6.851105 4.822561,6.836972 4.9106213,6.83693 5.0227426,6.8368748 5.1106912,6.856212 5.2034077,6.901299 5.2951337,6.945905 5.3220475,6.971534 6.2793325,7.9258757 L 7.0353796,8.6795985 9.1563592,6.5586243 11.277339,4.43765 11.981689,5.1419841 12.68604,5.8463182 9.9556673,8.5766946 7.2252953,11.307071 H 7.0370866 6.8488779 Z"
       id="path35"
       inkscape:connector-curvature="0"
       transform="translate(0,1036.3622)" />
    <path
       style="fill:#008000;fill-opacity:1;stroke-width:0.00552427"
       d="M 4.1337294,8.5958936 C 3.96011,8.4212298 3.9024418,8.3598013 3.9024418,8.3495246 c 0,-0.00203 0.032836,0.030546 0.072969,0.072385 0.040133,0.041838 0.1363272,0.1400103 0.2137649,0.21816 0.077438,0.07815 0.1395444,0.1433416 0.138015,0.1448711 -0.00153,0.00153 -0.088587,-0.083541 -0.1934613,-0.1890471 z"
       id="path37"
       inkscape:connector-curvature="0"
       transform="translate(0,1036.3622)" />
    <path
       style="fill:#008000;fill-opacity:1;stroke-width:0.00552427"
       d="m 5.4491158,7.1000624 c -0.025759,-0.025978 -0.072214,-0.069997 -0.1032336,-0.09782 -0.059548,-0.053412 -0.071479,-0.070812 -0.022462,-0.032757 0.035287,0.027395 0.1859488,0.177809 0.1781023,0.177809 -0.00306,0 -0.026648,-0.021254 -0.052407,-0.047232 z"
       id="path39"
       inkscape:connector-curvature="0"
       transform="translate(0,1036.3622)" />
    <path
       style="fill:#008000;fill-opacity:1;stroke-width:0.00552427"
       d="M 5.5274354,9.9838515 C 4.8009706,9.2560805 4.2068186,8.6591607 4.2070975,8.6573629 4.2073764,8.655565 4.1616517,8.6077814 4.1054869,8.5511772 3.913571,8.3577595 3.8838057,8.3235549 3.8529716,8.2610012 3.7445427,8.0410294 3.7698469,7.7572818 3.9141644,7.5748185 3.9538195,7.5246817 4.3438089,7.1297676 4.4548689,7.0272859 c 0.089208,-0.082317 0.1384544,-0.1158795 0.212508,-0.1448268 0.081145,-0.031719 0.1529996,-0.044837 0.2458332,-0.04488 0.1575346,-7.23e-5 0.2882505,0.043368 0.388584,0.1291378 0.024885,0.021273 0.037943,0.03083 0.029019,0.021239 -0.00892,-0.00959 -0.013739,-0.017438 -0.010701,-0.017438 0.00704,0 0.036265,0.030252 0.032685,0.033832 -0.00148,0.00148 0.015224,0.019948 0.037111,0.041049 0.021886,0.021102 0.032538,0.030287 0.023669,0.020412 -0.00887,-0.00987 -0.013377,-0.017954 -0.01002,-0.017954 0.00336,0 0.016874,0.012943 0.030036,0.028763 0.025774,0.030978 0.04849,0.053778 0.9810144,0.984646 L 7.0347103,8.6802679 9.1560246,6.5589589 11.277339,4.43765 11.981689,5.1419841 12.68604,5.8463182 9.9556673,8.5766946 7.2252953,11.307071 H 7.0367878 6.8482804 Z"
       id="path41"
       inkscape:connector-curvature="0"
       transform="translate(0,1036.3622)" />
    <path
       style="fill:#008000;fill-opacity:1;stroke-width:0.00552427"
       d="M 5.5094456,9.966054 C 4.7729811,9.2284946 4.1708809,8.6236183 4.171445,8.6218842 4.1720092,8.6201542 4.130359,8.5766742 4.078888,8.5252702 4.027418,8.4738662 3.985305,8.4341512 3.985305,8.4370122 c 0,0.00286 -0.00994,-0.00451 -0.022097,-0.016374 C 3.935414,8.3934982 3.933896,8.3813562 3.961518,8.4071252 3.972742,8.4175962 3.959048,8.4014552 3.931086,8.3712522 3.8900464,8.3269248 3.8749689,8.305631 3.8528553,8.2607671 3.8013279,8.156229 3.783027,8.0649107 3.7881156,7.9377273 3.7936466,7.7994866 3.8322062,7.68281 3.9044659,7.5856659 3.9363791,7.5427624 4.388959,7.0846263 4.4758054,7.0073121 c 0.074338,-0.066179 0.1235688,-0.098271 0.1914698,-0.1248132 0.081033,-0.031675 0.1531479,-0.044886 0.2450013,-0.04488 0.088174,5.6e-6 0.1509331,0.00968 0.2199851,0.033907 0.066724,0.023411 0.1150549,0.049532 0.1602397,0.086604 0.020881,0.017131 0.034553,0.026927 0.030383,0.021768 -0.00417,-0.00516 -0.0053,-0.00938 -0.0025,-0.00938 0.00687,0 0.046937,0.041408 0.043443,0.044901 -0.00153,0.00153 0.00749,0.012555 0.020034,0.024511 0.012544,0.011956 0.021052,0.018631 0.018908,0.014833 -0.00214,-0.0038 -0.00154,-0.00691 0.00135,-0.00691 0.00289,0 0.025113,0.021752 0.049387,0.048337 0.029941,0.032793 1.4843911,1.4891226 1.57905,1.5810912 0.00143,0.00139 0.9570945,-0.9519569 2.1236933,-2.1185527 L 11.277339,4.43765 11.981689,5.1419841 12.68604,5.8463182 9.9556673,8.5766946 7.2252953,11.307071 H 7.0368836 6.8484719 Z"
       id="path43"
       inkscape:connector-curvature="0"
       transform="translate(0,1036.3622)" />
    <path
       style="fill:#008000;fill-opacity:1;stroke-width:0.00390625"
       d="M 5.0343905,9.4916388 C 4.6337144,9.089077 4.3048945,8.7603228 4.3036794,8.7610738 4.3011013,8.7626671 4.0264191,8.4876228 3.9567957,8.4137327 3.9080315,8.3619801 3.892094,8.3383261 3.9315747,8.3763003 c 0.016361,0.015737 0.014201,0.012621 -0.00822,-0.011852 C 3.9066294,8.3461864 3.8877021,8.3236803 3.881297,8.3144345 3.8651101,8.2910686 3.8298333,8.2163279 3.8174799,8.1792255 3.7626895,8.0146671 3.7777368,7.815922 3.8566694,7.6616099 3.8797073,7.616571 3.900876,7.5864399 3.9405734,7.5421825 3.9921562,7.4846745 4.2642219,7.2095482 4.3787332,7.0990936 l 0.119747,-0.1155048 0.4227938,0.00195 0.4227937,0.00195 0.845,0.8457031 0.8449999,0.8457032 1.858583,-1.8583985 1.8585824,-1.8583984 h 0.196259 0.19626 V 6.1759736 7.3898428 L 9.7267576,8.806833 8.3097635,10.223823 7.0363278,10.223696 5.7628924,10.223569 Z"
       id="path45"
       inkscape:connector-curvature="0"
       transform="translate(0,1036.3622)" />
    <path
       style="fill:#008000;fill-opacity:1;stroke-width:0.00390625"
       d="M 5.6103579,10.070503 C 5.2060106,9.6637173 4.325058,8.7824291 4.2134292,8.6730419 4.0776127,8.5399527 3.9093767,8.3664087 3.9093767,8.3593961 c 0,-0.00239 0.0073,0.0026 0.016227,0.011095 0.00892,0.00849 0.00175,-0.00115 -0.015944,-0.021418 -0.026032,-0.029826 -0.03694,-0.046597 -0.05716,-0.087891 -0.013744,-0.028067 -0.030099,-0.066852 -0.036344,-0.086188 -0.052542,-0.1626753 -0.03839,-0.3561129 0.037076,-0.5067579 0.0094,-0.018756 0.017083,-0.03646 0.017083,-0.039344 0,-0.00615 0.032362,-0.054038 0.057283,-0.084758 0.025898,-0.031924 0.5339519,-0.5399052 0.5659272,-0.5658463 0.034545,-0.028026 0.082537,-0.060083 0.091035,-0.060807 0.00355,-3.027e-4 0.017004,-0.00599 0.029895,-0.012635 0.03327,-0.017154 0.092784,-0.038772 0.1374955,-0.049942 0.1173879,-0.029327 0.2576506,-0.024303 0.372379,0.01334 0.069966,0.022956 0.1176699,0.048827 0.1776255,0.096331 0.012891,0.010213 0.019176,0.013836 0.013967,0.00805 -0.011154,-0.012392 -0.00777,-0.013735 0.0069,-0.00274 0.00571,0.00428 0.3930938,0.3905595 0.8608529,0.8583984 L 7.0341472,8.6789013 8.8926619,6.8205028 10.751177,4.9621044 h 0.196287 0.196288 V 6.1759736 7.3898428 L 9.7267576,8.806833 8.3097635,10.223823 H 7.0362613 5.7627592 Z"
       id="path47"
       inkscape:connector-curvature="0"
       transform="translate(0,1036.3622)" />
    <path
       style="fill:#008000;fill-opacity:1;stroke-width:0.00390625"
       d="M 4.8480176,9.3065704 C 4.3448364,8.8023679 3.9277954,8.3834543 3.9212598,8.3756512 c -0.01467,-0.017515 -0.015487,-0.02365 -0.00145,-0.010907 0.00574,0.00521 -0.00123,-0.00435 -0.015484,-0.021235 C 3.8172305,8.2403196 3.7703863,8.0578876 3.7885442,7.8926145 3.8010161,7.7790952 3.8493757,7.650582 3.9098159,7.5703411 3.9348458,7.5371113 4.1304924,7.3376557 4.3724753,7.0986743 4.5152944,6.9576268 4.5374284,6.9399828 4.6183611,6.902668 4.7051361,6.86266 4.7749809,6.844203 4.8656977,6.837308 5.0149109,6.825968 5.177391,6.868637 5.2777353,6.9455137 c 0.042762,0.032762 0.040713,0.031369 0.034484,0.023426 -0.00645,-0.00822 -0.00154,-0.00874 0.00927,-9.751e-4 0.0043,0.00309 0.3914003,0.3893102 0.8602298,0.8582742 l 0.8524172,0.8526619 1.85853,-1.8583985 1.8585297,-1.8583984 h 0.196279 0.19628 V 6.175973 7.3898422 L 9.7267608,8.8068324 8.3097667,10.223822 7.036331,10.223562 5.7628956,10.223301 Z"
       id="path49"
       inkscape:connector-curvature="0"
       transform="translate(0,1036.3622)" />
    <path
       style="fill:#008000;fill-opacity:1;stroke-width:0.00390625"
       d="M 4.8460044,9.3047634 C 4.3417161,8.7994064 3.9246751,8.3804053 3.9192466,8.3736499 c -0.011432,-0.014227 -0.012906,-0.020352 -0.00303,-0.01261 0.00376,0.00295 -0.00117,-0.00431 -0.010957,-0.016123 -0.026136,-0.031558 -0.03234,-0.041274 -0.053746,-0.084168 C 3.785604,8.1286871 3.7675739,7.971809 3.8006161,7.8179318 3.8191512,7.7316139 3.8639329,7.6306619 3.9110121,7.5690647 3.9405454,7.5304241 4.1753324,7.2911265 4.3957049,7.0750601 4.5131853,6.9598754 4.5405675,6.9386667 4.6183611,6.9026034 c 0.1422612,-0.065949 0.287275,-0.083777 0.4361241,-0.053619 0.072859,0.014762 0.1641346,0.052437 0.2103603,0.086828 0.011816,0.00879 0.027548,0.0205 0.034959,0.026021 0.00741,0.00552 0.012141,0.00784 0.010512,0.00515 -0.00393,-0.00647 0.00146,-0.006 0.01117,9.78e-4 0.0043,0.00309 0.3913948,0.3893102 0.8602175,0.8582742 L 7.0341087,8.6789013 8.8926631,6.8205028 10.751217,4.9621044 h 0.196268 0.196267 V 6.1759736 7.3898428 L 9.7267576,8.806833 8.3097635,10.223823 7.0363278,10.223709 5.7628924,10.223594 Z"
       id="path51"
       inkscape:connector-curvature="0"
       transform="translate(0,1036.3622)" />
  </g>
</svg>
