<?xml version="1.0" encoding="UTF-8" standalone="no"?>
<!-- Created with Inkscape (http://www.inkscape.org/) -->

<svg
   xmlns:dc="http://purl.org/dc/elements/1.1/"
   xmlns:cc="http://creativecommons.org/ns#"
   xmlns:rdf="http://www.w3.org/1999/02/22-rdf-syntax-ns#"
   xmlns:svg="http://www.w3.org/2000/svg"
   xmlns="http://www.w3.org/2000/svg"
   xmlns:sodipodi="http://sodipodi.sourceforge.net/DTD/sodipodi-0.dtd"
   xmlns:inkscape="http://www.inkscape.org/namespaces/inkscape"
   width="50"
   height="20"
   id="svg7539"
   version="1.1"
   inkscape:version="0.92.3 (2405546, 2018-03-11)"
   sodipodi:docname="switch-off.svg">
  <defs
     id="defs7541">
    <linearGradient
       id="linearGradient4695-1-4-3-5-0-6">
      <stop
         id="stop4697-9-9-7-0-1-5"
         style="stop-color:#000000;stop-opacity:1;"
         offset="0" />
      <stop
         id="stop4699-5-8-9-0-4-0"
         style="stop-color:#000000;stop-opacity:0"
         offset="1" />
    </linearGradient>
    <linearGradient
       id="linearGradient3768-6">
      <stop
         style="stop-color:#0f0f0f;stop-opacity:1;"
         offset="0"
         id="stop3770-0" />
      <stop
         id="stop3778-6"
         offset="0.078125"
         style="stop-color:#171717;stop-opacity:1;" />
      <stop
         style="stop-color:#171717;stop-opacity:1;"
         offset="0.97355771"
         id="stop3774-2" />
      <stop
         style="stop-color:#1b1b1b;stop-opacity:1;"
         offset="1"
         id="stop3776-2" />
    </linearGradient>
    <linearGradient
       id="linearGradient3969-0-4">
      <stop
         style="stop-color:#353537;stop-opacity:1;"
         offset="0"
         id="stop3971-2-6" />
      <stop
         style="stop-color:#4d4f52;stop-opacity:1;"
         offset="1"
         id="stop3973-0-1" />
    </linearGradient>
    <linearGradient
       id="linearGradient3938">
      <stop
         id="stop3940"
         offset="0"
         style="stop-color:#ffffff;stop-opacity:0;" />
      <stop
         id="stop3942"
         offset="1"
         style="stop-color:#ffffff;stop-opacity:0.54901963;" />
    </linearGradient>
    <linearGradient
       id="linearGradient6523">
      <stop
         id="stop6525"
         offset="0"
         style="stop-color:#1a1a1a;stop-opacity:1;" />
      <stop
         id="stop6527"
         offset="1"
         style="stop-color:#1a1a1a;stop-opacity:0;" />
    </linearGradient>
    <linearGradient
       id="linearGradient3938-6">
      <stop
         id="stop3940-4"
         offset="0"
         style="stop-color:#bebebe;stop-opacity:1;" />
      <stop
         id="stop3942-8"
         offset="1"
         style="stop-color:#ffffff;stop-opacity:1;" />
    </linearGradient>
  </defs>
  <sodipodi:namedview
     id="base"
     pagecolor="#ffffff"
     bordercolor="#666666"
     borderopacity="1.0"
     inkscape:pageopacity="0.0"
     inkscape:pageshadow="2"
     inkscape:zoom="131.99327"
     inkscape:cx="38.945736"
     inkscape:cy="9.8959614"
     inkscape:current-layer="layer1"
     showgrid="true"
     inkscape:grid-bbox="true"
     inkscape:document-units="px"
     fit-margin-top="0"
     fit-margin-left="0"
     fit-margin-right="0"
     fit-margin-bottom="0"
     inkscape:window-width="1920"
     inkscape:window-height="1013"
     inkscape:window-x="0"
     inkscape:window-y="0"
     inkscape:window-maximized="1"
     inkscape:snap-bbox="true"
     showguides="true"
     inkscape:guide-bbox="true"
     inkscape:snap-bbox-midpoints="false"
     inkscape:bbox-paths="true"
     inkscape:bbox-nodes="true"
     inkscape:snap-bbox-edge-midpoints="true">
    <inkscape:grid
       type="xygrid"
       id="grid3019"
       empspacing="5"
       visible="true"
       enabled="true"
       snapvisiblegridlinesonly="true"
       originx="-4"
       originy="2.6171874e-06" />
  </sodipodi:namedview>
  <metadata
     id="metadata7544">
    <rdf:RDF>
      <cc:Work
         rdf:about="">
        <dc:format>image/svg+xml</dc:format>
        <dc:type
           rdf:resource="http://purl.org/dc/dcmitype/StillImage" />
        <dc:title />
      </cc:Work>
    </rdf:RDF>
  </metadata>
  <g
     id="layer1"
     inkscape:label="Layer 1"
     inkscape:groupmode="layer"
     transform="translate(-120,87.999997)">
    <g
       transform="translate(-886,-418)"
       style="display:inline;opacity:1"
       id="switch-dark"
       inkscape:label="#g4820">
      <g
         id="layer1-9-13"
         inkscape:label="Layer 1"
         transform="matrix(-1,0,0,1,1177,420)">
        <g
           style="display:inline"
           transform="translate(120,-116.99998)"
           inkscape:label="Layer 1"
           id="switch-active-2-2">
          <g
             id="g3900-12-8"
             transform="translate(0,-1004.3622)">
            <rect
               style="display:inline;opacity:0;fill:#434343;fill-opacity:1;stroke:none;stroke-width:1;stroke-linecap:butt;stroke-linejoin:miter;stroke-miterlimit:4;stroke-dasharray:none;stroke-dashoffset:0;stroke-opacity:1"
               id="rect5465-3-32-7"
               width="52"
               height="24"
               x="0"
               y="1029.3622" />
            <rect
               style="fill:#5b5b5b;fill-opacity:1;fill-rule:nonzero;stroke:none"
               id="rect2987-07-4"
               width="50"
               height="20"
               x="1"
               y="1031.3622"
               ry="11"
               rx="11" />
            <circle
               style="fill:#353535;fill-opacity:1;fill-rule:nonzero;stroke:none"
               id="path3759-7-4"
               cx="41"
               cy="1041.3622"
               r="9" />
          </g>
        </g>
      </g>
      <path
         inkscape:connector-curvature="0"
         d="m 1043.0028,337 0.75,0 c 0.01,-9e-5 0.016,-3.5e-4 0.023,0 0.1912,0.008 0.3824,0.0964 0.5156,0.23437 l 1.711,1.71094 1.7343,-1.71094 c 0.1993,-0.17287 0.335,-0.22912 0.5157,-0.23437 l 0.75,0 0,0.75 c 0,0.21485 -0.026,0.41298 -0.1875,0.5625 l -1.711,1.71093 1.6875,1.6875 c 0.1412,0.14113 0.211,0.34009 0.211,0.53907 l 0,0.75 -0.75,0 c -0.199,-10e-6 -0.398,-0.0698 -0.5391,-0.21094 l -1.7109,-1.71094 -1.711,1.71094 c -0.1411,0.14114 -0.3401,0.21094 -0.539,0.21094 l -0.75,0 0,-0.75 c 0,-0.19897 0.07,-0.39794 0.2109,-0.53907 l 1.7109,-1.6875 -1.7109,-1.71093 c -0.1581,-0.14598 -0.2274,-0.35194 -0.2109,-0.5625 l 0,-0.75 z"
         id="path10839-9-8-2-2-5-46"
         style="color:#bebebe;font-style:normal;font-variant:normal;font-weight:normal;font-stretch:normal;font-size:medium;line-height:normal;font-family:'Andale Mono';-inkscape-font-specification:'Andale Mono';text-indent:0;text-align:start;text-decoration:none;text-decoration-line:none;letter-spacing:normal;word-spacing:normal;text-transform:none;direction:ltr;block-progression:tb;writing-mode:lr-tb;text-anchor:start;display:inline;overflow:visible;visibility:visible;opacity:1;fill:#353535;fill-opacity:1;fill-rule:nonzero;stroke:none;stroke-width:1.78124988;marker:none;enable-background:new" />
    </g>
    <path
       style="fill:#aa0000;stroke-width:0.00757614"
       d="m 37.007858,12.574998 c 1.11e-4,-0.475419 0.0018,-0.495302 0.05371,-0.626926 0.04762,-0.120768 0.08786,-0.169505 0.375578,-0.454815 0.298162,-0.295672 1.319035,-1.302201 1.423014,-1.40302 l 0.06815,-0.06608 -0.901912,-0.9036699 C 37.202182,8.2946687 37.121775,8.2119263 37.09301,8.1600001 37.05284,8.0874831 37.01794,7.9826543 37.00978,7.9099874 37.00628,7.8787354 37.00468,7.6613952 37.00628,7.4270082 l 0.0029,-0.4261581 h 0.388928 c 0.234153,0 0.412511,0.00322 0.44819,0.0081 0.06603,0.00903 0.170797,0.041684 0.231523,0.072166 0.11366,0.057051 0.12398,0.066789 1.036135,0.9775949 l 0.890197,0.8888803 0.219708,-0.2178858 c 0.240984,-0.2389853 1.24182,-1.2259261 1.426627,-1.4068215 0.139978,-0.1370141 0.227185,-0.2040208 0.329684,-0.2533164 0.136437,-0.065618 0.118732,-0.063641 0.598492,-0.066832 l 0.422887,-0.00281 -0.003,0.468289 c -0.0028,0.43953 -0.004,0.4724766 -0.01864,0.5364744 -0.01872,0.081763 -0.03956,0.1359681 -0.07575,0.1969797 -0.02058,0.034705 -0.236802,0.2555671 -0.914092,0.933728 l -0.88713,0.8882713 0.875146,0.87697 c 0.967629,0.969647 0.916443,0.913298 0.972534,1.070608 0.04708,0.132027 0.04993,0.167565 0.04993,0.622133 v 0.407777 l -0.376913,-1.31e-4 c -0.207302,-7.6e-5 -0.40885,-0.0035 -0.447884,-0.0076 -0.131361,-0.01384 -0.224335,-0.04385 -0.338141,-0.109152 -0.0458,-0.02628 -0.174427,-0.151577 -0.943304,-0.918879 l -0.890271,-0.888448 -0.859818,0.860319 c -0.510007,0.510305 -0.884477,0.879094 -0.920428,0.906466 -0.110746,0.08432 -0.24623,0.135507 -0.396326,0.149741 -0.04453,0.0042 -0.247172,0.0077 -0.450308,0.0077 l -0.369337,6e-6 z"
       id="path36"
       inkscape:connector-curvature="0"
       transform="translate(120,-87.999997)" />
  </g>
</svg>
