<?xml version="1.0" encoding="UTF-8" standalone="no"?>
<svg
   xmlns:dc="http://purl.org/dc/elements/1.1/"
   xmlns:cc="http://creativecommons.org/ns#"
   xmlns:rdf="http://www.w3.org/1999/02/22-rdf-syntax-ns#"
   xmlns:svg="http://www.w3.org/2000/svg"
   xmlns="http://www.w3.org/2000/svg"
   xmlns:sodipodi="http://sodipodi.sourceforge.net/DTD/sodipodi-0.dtd"
   xmlns:inkscape="http://www.inkscape.org/namespaces/inkscape"
   enable-background="new 0 0 32 32"
   height="16"
   id="Layer_1"
   version="1.1"
   viewBox="0 0 16 16"
   width="16"
   xml:space="preserve"
   inkscape:version="0.92.3 (2405546, 2018-03-11)"
   sodipodi:docname="stick-icon.svg"><metadata
     id="metadata26"><rdf:RDF><cc:Work
         rdf:about=""><dc:format>image/svg+xml</dc:format><dc:type
           rdf:resource="http://purl.org/dc/dcmitype/StillImage" /><dc:title /></cc:Work></rdf:RDF></metadata><defs
     id="defs24" /><sodipodi:namedview
     pagecolor="#d7d7d7"
     bordercolor="#666666"
     borderopacity="1"
     objecttolerance="10"
     gridtolerance="10"
     guidetolerance="10"
     inkscape:pageopacity="0"
     inkscape:pageshadow="2"
     inkscape:window-width="1920"
     inkscape:window-height="1013"
     id="namedview22"
     showgrid="true"
     inkscape:zoom="64"
     inkscape:cx="7.0961036"
     inkscape:cy="8.9299457"
     inkscape:window-x="0"
     inkscape:window-y="0"
     inkscape:window-maximized="1"
     inkscape:current-layer="Layer_1"
     inkscape:snap-bbox="true"
     inkscape:bbox-paths="true"
     inkscape:bbox-nodes="true"
     inkscape:snap-bbox-edge-midpoints="true"><inkscape:grid
       type="xygrid"
       id="grid3003"
       empspacing="5"
       visible="true"
       enabled="true"
       snapvisiblegridlinesonly="true" /></sodipodi:namedview><g
     id="g4156"><rect
       y="2.6171874e-06"
       x="0"
       height="16"
       width="16"
       id="rect17883-29"
       style="display:inline;opacity:1;fill:none;fill-opacity:1;stroke:none;stroke-width:1;stroke-linecap:butt;stroke-linejoin:miter;stroke-miterlimit:4;stroke-dasharray:none;stroke-dashoffset:0;stroke-opacity:0" /><path
       style="color:#000000;clip-rule:nonzero;display:inline;overflow:visible;visibility:visible;opacity:1;isolation:auto;mix-blend-mode:normal;color-interpolation:sRGB;color-interpolation-filters:linearRGB;solid-color:#000000;solid-opacity:1;fill:#808080;fill-opacity:1;fill-rule:nonzero;stroke:none;stroke-width:1;stroke-linecap:butt;stroke-linejoin:miter;stroke-miterlimit:4;stroke-dasharray:none;stroke-dashoffset:0;stroke-opacity:1;marker:none;marker-start:none;marker-mid:none;marker-end:none;paint-order:normal;color-rendering:auto;image-rendering:auto;shape-rendering:auto;text-rendering:auto;enable-background:accumulate"
       sodipodi:nodetypes="cccccccccc"
       id="path9895"
       d="M 10,3 7,5 4,4 4,11 7,10 10,12 10,8 15,7.51693 10,7 Z"
       inkscape:connector-curvature="0" /></g><path
     style="fill:#ffcc00;fill-opacity:1;stroke-width:0.015625"
     d="M 8.4899398,10.987804 6.9978386,9.9930357 5.5132863,10.487795 c -0.8165038,0.272118 -1.4897848,0.494759 -1.4961801,0.494759 -0.0064,0 -0.011628,-1.5679684 -0.011628,-3.4843747 0,-1.9164062 0.00523,-3.484375 0.011628,-3.484375 0.0064,0 0.6808262,0.223025 1.4987354,0.495611 L 7.0029492,5.0050262 8.496342,4.009446 9.9897348,3.0138659 l 0.00397,1.9956811 0.00397,1.9956812 2.4423752,0.2526527 c 1.343306,0.1389589 2.44495,0.255227 2.448096,0.2583736 0.0031,0.00315 -1.078344,0.1097908 -2.403312,0.236987 -1.324969,0.1271963 -2.428343,0.2348949 -2.451943,0.2393303 l -0.04291,0.00806 -0.00397,1.9909683 -0.00397,1.9909689 z"
     id="path10"
     inkscape:connector-curvature="0" /><path
     style="fill:#ffcc00;fill-opacity:1;stroke-width:0.015625"
     d="M 8.4845229,10.973982 7.0026298,9.9860257 5.9063979,10.351771 C 4.4845088,10.826168 4.0359012,10.97131 4.025053,10.960462 4.012478,10.947882 4.014051,4.0468988 4.026633,4.034318 4.032353,4.028598 4.7045719,4.2457133 5.5204422,4.5168071 L 7.0038414,5.0097048 8.4889973,4.0195671 C 9.3058331,3.4749913 9.9776859,3.0294293 9.9820034,3.0294293 c 0.00432,0 0.00785,0.8964844 0.00785,1.9921875 0,1.5065733 0.00444,1.9921875 0.018215,1.9921875 0.01913,0 1.671075,0.1704691 3.55991,0.3673586 0.614453,0.06405 1.141796,0.121281 1.171875,0.1271803 0.04018,0.00788 -0.01783,0.018272 -0.21875,0.039179 -0.210564,0.021911 -3.927719,0.3839658 -4.418472,0.4303641 -0.05399,0.0051 -0.102616,0.01649 -0.1080613,0.025302 -0.00545,0.00881 -0.014008,0.9031352 -0.019028,1.9873856 l -0.00913,1.9713651 z"
     id="path12"
     inkscape:connector-curvature="0" /></svg>